<svg xmlns="http://www.w3.org/2000/svg" width="18.792" height="14.467" viewBox="0 0 18.792 14.467">
    <path fill="#54b589" stroke="#54b589" stroke-width="0.5px" d="M786.775 926.154l-.015-.039a.389.389 0 0 0-.478-.2l-5.713 1.9-5.815-1.939-.021-.007-5.964 1.989-.039.014a.4.4 0 0 0-.225.355V939.4a.418.418 0 0 0 .021.128l.015.039a.393.393 0 0 0 .479.2l5.713-1.9 5.815 1.939.021.007 5.964-1.989.039-.014a.4.4 0 0 0 .225-.355v-11.173a.393.393 0 0 0-.022-.128zm-.761.672v10.344l-5.053 1.684V928.51zm-10.89 10.344v-10.344l5.053 1.684v10.344zm-.784-10.344v10.344l-5.053 1.684v-10.345z" transform="translate(-768.254 -925.607)"/>
</svg>
