<svg xmlns="http://www.w3.org/2000/svg" width="16.196" height="14.448" viewBox="0 0 16.196 14.448">
    <path fill="#fff" d="M896.166 107.236l-14.131-.039a1.02 1.02 0 0 0-1.023 1.017l-.025 9.181a1.019 1.019 0 0 0 1.013 1.023l10.426.029 3.18 3.2.009-3.189h.516a1.02 1.02 0 0 0 1.023-1.017l.025-9.181a1.021 1.021 0 0 0-1.013-1.024zm-10.7 6.667a1.042 1.042 0 1 1 1.042-1.041 1.042 1.042 0 0 1-1.039 1.038zm3.613 0a1.042 1.042 0 1 1 1.042-1.041 1.042 1.042 0 0 1-1.039 1.038zm3.619 0a1.042 1.042 0 1 1 1.042-1.041 1.042 1.042 0 0 1-1.04 1.038z" transform="translate(-880.987 -107.197)"/>
</svg>
